<svg id="Capa_1" data-name="Capa 1" xmlns="http://www.w3.org/2000/svg" viewBox="0 0 438.54999 427.82456">
  <defs>
    <style>
      .cls-1 {
        fill: #2b64ce;
      }

      .cls-2 {
        fill: #d73a4a;
      }

      .cls-3 {
        fill: #e5732f;
      }

      .cls-4 {
        fill: #ffd23d;
      }

      .cls-5 {
        fill: #53a451;
      }

      .cls-6 {
        fill: #6944ba;
      }
    </style>
  </defs>
  <title>GitHub Pride</title>
  <polygon class="cls-1" points="159.44 376.94 164.73 376.02 164.73 376.94 159.44 376.94"/>
  <g>
    <path class="cls-2" d="M381.61,71.56H56.93a219.258,219.258,0,0,1,52.28-42.15Q159.595.01,219.27,0q59.685,0,110.06,29.41A219.25669,219.25669,0,0,1,381.61,71.56Z"/>
    <path class="cls-3" d="M336.84,148.47q10.2-25.77-2.5-57.68Q326.345,88.225,311.2,93.93a153.97059,153.97059,0,0,0-26.26,12.56l-10.85,6.85a206.21926,206.21926,0,0,0-109.64,0q-4.56006-3.135-12.13-7.71-7.575-4.56-23.84-10.99-16.275-6.42-24.56-3.85-12.42,31.92-2.21,57.68H11.43a214.94624,214.94624,0,0,1,17.98-39.26A223.6537,223.6537,0,0,1,56.93,71.56H381.61a223.64978,223.64978,0,0,1,27.52,37.65,215.564,215.564,0,0,1,17.97,39.26Z"/>
    <path class="cls-4" d="M101.93,149.03Q79.37,173.3,79.37,207.84q0,9.18.84,17.55H.08q-.075-3.045-.08-6.12a218.32723,218.32723,0,0,1,11.43-70.8h90.28C101.78,148.66,101.85,148.84,101.93,149.03Z"/>
    <path class="cls-4" d="M438.55,219.26q0,3.075-.08,6.13H358.34q.84-8.37.84-17.54,0-34.545-22.56-58.82c.08-.19.15-.37.22-.56H427.1A218.27754,218.27754,0,0,1,438.55,219.26Z"/>
    <path class="cls-5" d="M123.19,299.78q2.385,1.335,4.75,2.53H15.96A214.37351,214.37351,0,0,1,.08,225.39H80.21a126.185,126.185,0,0,0,5.01,25.28q5.85,18.555,14.99,29.98A76.97171,76.97171,0,0,0,123.19,299.78Z"/>
    <path class="cls-5" d="M438.47,225.39A214.38108,214.38108,0,0,1,422.58,302.31H310.31q2.37-1.2,4.76-2.53a79.8932,79.8932,0,0,0,23.13-18.99q9.27-11.28,15.12-29.98a127.47064,127.47064,0,0,0,5.02-25.42Z"/>
    <path class="cls-1" d="M150.03,310.92a195.7035,195.7035,0,0,0,29.26,5.14q-11.415,10.275-13.99,29.41a56.82015,56.82015,0,0,1-12.84,4.28,81.05245,81.05245,0,0,1-16.28,1.42q-9.42,0-18.7-6.13-9.285-6.135-15.84-17.85a46.0738,46.0738,0,0,0-13.85-14.84q-8.43-5.715-14.13-6.85l-5.71-.85c-4,0-6.75.41-8.28,1.27q-2.27994,1.29-1.43,3.29a15.76559,15.76559,0,0,0,2.57,4,20.92615,20.92615,0,0,0,3.71,3.43l2,1.43q6.285,2.85,12.42,10.84a71.53817,71.53817,0,0,1,8.99,14.56l2.86,6.57a36.1697,36.1697,0,0,0,12.56,17.56,44.32888,44.32888,0,0,0,19.13,8.56c1.62.29,3.23.55,4.82.78H66.62a230.59232,230.59232,0,0,1-24.79-28.76,219.16154,219.16154,0,0,1-25.87-45.87H127.94A111.41255,111.41255,0,0,0,150.03,310.92Z"/>
    <path class="cls-1" d="M422.58,302.31a218.35289,218.35289,0,0,1-25.86,45.86,230.94683,230.94683,0,0,1-24.81,28.77h-98.1V356.6q0-27.69-14.85-40.54a194.74252,194.74252,0,0,0,29.27-5.15,111.511,111.511,0,0,0,22.08-8.6Z"/>
    <path class="cls-6" d="M165.02,416.84a11.19854,11.19854,0,0,1-3.71,8.57q-3.72,3.42-11.42,1.99a213.0683,213.0683,0,0,1-83.27-50.46h98.11q0,10.53.15,24.49Q165.015,415.995,165.02,416.84Z"/>
    <path class="cls-6" d="M371.91,376.94A213.00909,213.00909,0,0,1,288.65,427.39q-7.71,1.44-11.27-1.99a11.37274,11.37274,0,0,1-3.57-8.56v-39.9Z"/>
  </g>
</svg>
